<svg xmlns="http://www.w3.org/2000/svg" width="54" height="40" fill="none"><path fill="#e1e1e1" d="M40.018 0q3.615 0 6.83 1.951t5.223 5.61Q54 11.22 54 16.179c0 4.959-.804 6.531-2.41 9.675q-.803 1.707-2.894 4.39-2.169 2.682-4.017 4.634L39.616 40 36 33.984a27.6 27.6 0 0 0 6.67-5.854q2.892-3.414 2.892-6.26 0-1.464-.642-2.358-2.813 2.033-6.268 2.033-2.49 0-4.741-1.545a10.7 10.7 0 0 1-3.697-3.902q-1.446-2.358-1.446-4.878 0-2.846 1.687-5.448a12.8 12.8 0 0 1 4.26-4.227Q37.285 0 40.017 0ZM11.17 0Q14.785 0 18 1.951q3.215 1.95 5.223 5.61 1.929 3.659 1.929 8.618 0 3.495-.884 6.26-.884 2.845-3.054 5.935-2.09 2.927-3.937 4.878-1.848 2.032-6.429 6.748l-3.616-6.016a27.6 27.6 0 0 0 6.67-5.854q2.892-3.414 2.893-6.26 0-1.464-.643-2.358-2.813 2.033-6.268 2.033-2.49 0-4.741-1.545a10.7 10.7 0 0 1-3.697-3.902Q0 13.74 0 11.22q0-2.846 1.607-5.448a12.8 12.8 0 0 1 4.26-4.227Q8.436 0 11.17 0"/></svg>